<svg width="21" height="21" viewBox="0 0 21 21" fill="none" xmlns="http://www.w3.org/2000/svg">
<path d="M19.5026 3.41573C19.5026 2.41573 18.7026 1.61572 17.7026 1.61572H3.30264C2.30264 1.61572 1.50264 2.41573 1.50264 3.41573L1.45264 17.8157C1.45264 18.8157 2.25264 19.6157 3.25264 19.6157H4.00264V18.6657C4.00264 16.6657 5.60265 15.0657 7.60265 15.0657H13.3526C15.3526 15.0657 16.9526 16.6657 16.9526 18.6657V19.6157H17.6026C18.6026 19.6157 19.4026 18.8157 19.4026 17.8157L19.5026 3.41573Z" stroke="white" stroke-width="1.5" stroke-miterlimit="10" stroke-linecap="round" stroke-linejoin="round"/>
<path d="M10.503 12.2658C12.6569 12.2658 14.403 10.5197 14.403 8.36581C14.403 6.2119 12.6569 4.46582 10.503 4.46582C8.34911 4.46582 6.60303 6.2119 6.60303 8.36581C6.60303 10.5197 8.34911 12.2658 10.503 12.2658Z" stroke="white" stroke-width="1.5" stroke-miterlimit="10" stroke-linecap="round" stroke-linejoin="round"/>
</svg>
