<svg width="25" height="25" viewBox="0 0 25 25" fill="none" xmlns="http://www.w3.org/2000/svg">
<path fill-rule="evenodd" clip-rule="evenodd" d="M13.8445 0.729392C13.8448 0.729709 13.8452 0.730027 13.8456 0.730345L23.8365 9.37501C23.8364 9.37498 23.8365 9.37504 23.8365 9.37501C25.2169 10.569 24.4017 12.8826 22.5378 12.8826H21.7147V21.3395C21.7147 22.9518 20.4187 24.2432 18.8062 24.2432H15.3909C15.042 24.2432 14.7593 23.9604 14.7593 23.6116C14.7593 23.2628 15.042 22.98 15.3909 22.98H18.8062C19.7236 22.98 20.4516 22.2517 20.4516 21.3395V12.2511C20.4516 11.9022 20.7343 11.6195 21.0831 11.6195H22.5378C23.2038 11.6195 23.527 10.7774 23.0102 10.3304L13.0169 1.6837L13.0148 1.68184C12.7468 1.44782 12.3427 1.44782 12.0746 1.68184L12.0725 1.6837L2.07936 10.3303C1.56252 10.7773 1.88557 11.6195 2.55157 11.6195H4.00627C4.35508 11.6195 4.63785 11.9022 4.63785 12.2511C4.63785 12.5999 4.35508 12.8826 4.00627 12.8826H2.55157C0.687721 12.8826 -0.127583 10.5691 1.25285 9.37511C1.25281 9.37514 1.25289 9.37507 1.25285 9.37511L11.2438 0.730345C11.2442 0.730003 11.2446 0.729661 11.245 0.72932C11.9886 0.0810882 13.1009 0.081112 13.8445 0.729392Z" fill="#ACC29E"/>
<path fill-rule="evenodd" clip-rule="evenodd" d="M3.375 12.2512C3.375 11.9024 3.65777 11.6196 4.00658 11.6196H21.0835C21.4323 11.6196 21.715 11.9024 21.715 12.2512C21.715 12.6 21.4323 12.8828 21.0835 12.8828H4.63816V21.3396C4.63816 22.2518 5.36609 22.9802 6.2835 22.9802H15.3912C15.74 22.9802 16.0227 23.2629 16.0227 23.6117C16.0227 23.9606 15.74 24.2433 15.3912 24.2433H6.2835C4.67099 24.2433 3.375 22.952 3.375 21.3396V12.2512Z" fill="#ACC29E"/>
<path fill-rule="evenodd" clip-rule="evenodd" d="M9.00391 19.3199C9.00391 18.2125 9.92041 17.2998 11.0269 17.2998H13.9996C15.1061 17.2998 16.0226 18.2125 16.0226 19.3199V23.6116C16.0226 23.9605 15.7398 24.2432 15.391 24.2432C15.0422 24.2432 14.7594 23.9605 14.7594 23.6116V19.3199C14.7594 18.9126 14.411 18.563 13.9996 18.563H11.0269C10.6155 18.563 10.2671 18.9126 10.2671 19.3199V23.6116C10.2671 23.9605 9.9843 24.2432 9.63549 24.2432C9.28667 24.2432 9.00391 23.9605 9.00391 23.6116V19.3199Z" fill="#ACC29E"/>
</svg>
