<svg width="25" height="25" viewBox="0 0 25 25" fill="none" xmlns="http://www.w3.org/2000/svg">
<path fill-rule="evenodd" clip-rule="evenodd" d="M10.9494 1.50632C5.89164 1.50632 1.79148 5.60645 1.79148 10.6642C1.79148 15.722 5.89164 19.8221 10.9494 19.8221C16.0072 19.8221 20.1073 15.722 20.1073 10.6642C20.1073 5.60645 16.0072 1.50632 10.9494 1.50632ZM0.52832 10.6642C0.52832 4.90883 5.19403 0.243164 10.9494 0.243164C16.7048 0.243164 21.3704 4.90883 21.3704 10.6642C21.3704 16.4196 16.7048 21.0853 10.9494 21.0853C5.19403 21.0853 0.52832 16.4196 0.52832 10.6642Z" fill="black"/>
<path fill-rule="evenodd" clip-rule="evenodd" d="M17.766 17.4809C18.0127 17.2342 18.4126 17.2342 18.6592 17.4809L24.3434 23.1651C24.5901 23.4117 24.5901 23.8116 24.3434 24.0583C24.0968 24.3049 23.6969 24.3049 23.4503 24.0583L17.766 18.3741C17.5194 18.1274 17.5194 17.7275 17.766 17.4809Z" fill="black"/>
</svg>
